<?xml version="1.0" encoding="utf-8"?>
<!-- Generator: Adobe Illustrator 22.0.1, SVG Export Plug-In . SVG Version: 6.00 Build 0)  -->
<svg version="1.1" id="图层_1" xmlns="http://www.w3.org/2000/svg" xmlns:xlink="http://www.w3.org/1999/xlink" x="0px" y="0px"
	 viewBox="0 0 294.3 108.8" style="enable-background:new 0 0 294.3 108.8;" xml:space="preserve">
<style type="text/css">
	.st0{fill:#3E3A39;}
	.st1{fill:url(#SVGID_1_);}
	.st2{fill:url(#SVGID_2_);}
	.st3{fill:url(#SVGID_3_);}
	.st4{fill:#E3007F;}
	.st5{fill:#E31C2D;}
	.st6{fill:url(#SVGID_4_);}
	.st7{fill:#00A915;}
	.st8{fill:url(#SVGID_5_);}
	.st9{fill:url(#SVGID_6_);}
</style>
<g>
	<g>
		<g>
			<polygon class="st0" points="266.8,33 267.6,29.6 250.8,29.6 250,33.1 229.1,33.1 228,38.2 286.9,38 287.7,33 			"/>
		</g>
		<g>
			<polygon class="st0" points="226.5,58 282.2,57.9 283.2,52.9 227.5,53 			"/>
		</g>
		<g>
			<polygon class="st0" points="228.5,48.1 284.2,47.9 285.2,42.9 229.5,43.1 			"/>
		</g>
		<g>
			<g>
				<path class="st0" d="M275.9,61.9c0,0-43.6,0.1-45.7,0.1c-3.3,0-5,2.6-5.2,3.8l-4,19.4c0,1,0.5,3.9,3.9,3.9h0l47.6-0.1
					c3.3,0,4.3-2.6,4.5-3.8l3.4-18.6C280.4,66.3,280.9,61.9,275.9,61.9z M267.4,83.1L231,83.2l3.1-16.1l36.4-0.1L267.4,83.1z"/>
			</g>
		</g>
		<g>
			<g>
				<path class="st0" d="M176.7,37.9c-0.7-0.7-1.8-1.1-2.8-1.1h-7l1.3-7.1h-7.4l-1.3,7.1h-7.3c-1.1,0-2.2,0.4-2.9,1.1
					c-0.8,0.7-1.4,1.5-1.6,2.7l-7.2,37.9c0,1,0.4,2.1,1.1,2.8c0.7,0.7,1.8,1.1,2.8,1.1h0h6.4l-1.2,6.4h7.6l1.2-6.4h7.9
					c1.2,0,2.1-0.4,2.9-1.1c0.8-0.6,1.3-1.6,1.5-2.7l7.2-37.9C177.8,39.7,177.4,38.7,176.7,37.9z M169.4,41.1l-2.6,14h-3.3l2.6-14
					H169.4z M158.6,41.1l-2.7,14h-3.2l2.7-14H158.6z M148.4,78.2l3.5-18.1h3.2l-3.4,18.1H148.4z M159.1,78.2l3.4-18.1h3.3l-3.4,18.1
					H159.1z"/>
			</g>
		</g>
		<g>
			<path class="st0" d="M210.7,45.3h-18.1l13.3-10.7c1.7-1.4,1.5-4.5-1-4.9h-24.1l-1,4.4h14.3L181,45c-0.9,0.6-1.2,1.8-0.9,2.8
				c0.4,1,1.3,1.7,2.4,1.7h16.4c0.4,0.1,1.7,0.4,2.9,1.7c0.9,1,0.7,3.3,0.6,4.3l-5.4,28.2h-4.3l5.1-27.4c0.1-0.7-0.1-1.5-0.6-2
				c-0.5-0.6-1.2-0.9-1.9-0.9h-2.7h-10.6h-0.5c-1.2,0-2.3,0.9-2.5,2.1L173,88.9c0,0,0.8,0,3.1,0c4,0,5.2-4.5,5.2-4.5l5-26.7h4
				L185,85.9c-0.1,0.7,0.1,1.5,0.6,2c0.5,0.6,1.3,0.9,2.1,0.9h15.7c1.2,0,2.3-0.9,2.5-2.1l7.4-38.4c0.1-0.7-0.1-1.5-0.6-2
				C212.2,45.7,211.5,45.3,210.7,45.3z"/>
		</g>
	</g>
</g>
<g>
	<linearGradient id="SVGID_1_" gradientUnits="userSpaceOnUse" x1="82.0515" y1="68.3929" x2="50.1984" y2="6.4083">
		<stop  offset="0" style="stop-color:#5AA2EE"/>
		<stop  offset="1" style="stop-color:#44E4DA"/>
	</linearGradient>
	<path class="st1" d="M67.3,18.8c-6.2-2.3-12.1-3.9-12.1-3.9c-1-0.4-2-0.7-2.9-1.1c-0.5-0.2-1-0.5-1.5-0.7c-5-2.4-7.8-5.2-7.8-5.2
		s-0.1,0.4-0.3,1c0.2-0.7,0.3-1,0.3-1s-5.4,15-3.7,33.4l1,0c0,0,0,0,0,0l0,0c0,0,0,0,0,0l2.2-0.1l0,0l0.5,0c0,0,0,0,0,0
		c0.4,0,0.9-0.1,1.3-0.1c0.1,0,0.3,0,0.4,0c0.2,0,0.4,0,0.6-0.1c0.2,0,0.4,0,0.5-0.1v0c0.4,0,0.8-0.1,1.2-0.1c0,0,1.4-0.3,3.6-0.6
		c3.3-0.4,8.4-0.9,14.1-0.9c0.4-0.7,1-1.5,1.5-2.2L91,47.7l10.9,6.7C97.6,31.5,76.6,22,67.3,18.8z"/>
	<linearGradient id="SVGID_2_" gradientUnits="userSpaceOnUse" x1="48.8353" y1="83.3162" x2="16.2577" y2="29.7439">
		<stop  offset="0" style="stop-color:#68319E"/>
		<stop  offset="0.9892" style="stop-color:#6C6DB7"/>
	</linearGradient>
	<path class="st2" d="M50.8,72.6c-3.7-7.1-7-17.1-7.9-31.3C18.9,43.1,3.7,30.7,3.7,30.7c3.7,29.2,26.2,47.3,42,54.5
		c5.2-4.6,4.9-12,4.9-12C50.7,73,50.8,72.8,50.8,72.6z"/>
	<linearGradient id="SVGID_3_" gradientUnits="userSpaceOnUse" x1="31.1495" y1="91.4515" x2="93.8546" y2="91.4515">
		<stop  offset="0" style="stop-color:#F15453"/>
		<stop  offset="1" style="stop-color:#F25A4F"/>
	</linearGradient>
	<path class="st3" d="M93.3,82.3c-0.4,0.4-0.7,0.8-1.1,1.1c-0.1,0.1-0.3,0.3-0.4,0.4c-0.4,0.3-0.7,0.7-1.1,1
		c-0.2,0.1-0.4,0.3-0.5,0.4c-1.2,0.9-2.5,1.7-3.8,2.4c-0.4,0.2-0.7,0.4-1.1,0.5c-0.3,0.1-0.6,0.2-0.9,0.4c-0.4,0.2-0.8,0.3-1.2,0.4
		c-0.3,0.1-0.6,0.2-0.9,0.3c-0.4,0.1-0.9,0.2-1.3,0.3c-0.3,0.1-0.6,0.1-0.9,0.2c-0.5,0.1-1,0.2-1.5,0.2c-0.3,0-0.5,0.1-0.8,0.1
		c-0.8,0.1-1.6,0.1-2.3,0.1c-0.7,0-1.5,0-2.2-0.1c-0.5,0-1.1-0.1-1.6-0.2c-0.1,0-0.2,0-0.3,0l-0.1,0.4c0,0-11.3-1-24.3-6.8
		c-2.7,4.6-8.7,16.2-15.7,16.7c0,0,41.5,7.9,62.7-18.3c-0.1,0.1-0.2,0.2-0.3,0.3C93.5,82.1,93.4,82.2,93.3,82.3z"/>
	<path class="st4" d="M90.1,85.2c-1.2,0.9-2.5,1.7-3.8,2.4C87.6,86.9,88.9,86.1,90.1,85.2z"/>
	<path class="st4" d="M93.3,82.3c-0.4,0.4-0.7,0.8-1.1,1.1C92.6,83.1,92.9,82.7,93.3,82.3z"/>
	<path class="st4" d="M91.7,83.9c-0.4,0.3-0.7,0.7-1.1,1C91,84.5,91.4,84.2,91.7,83.9z"/>
	<path class="st4" d="M90.6,84.8c-0.2,0.1-0.4,0.3-0.5,0.4C90.2,85.1,90.4,85,90.6,84.8z"/>
	<path class="st4" d="M92.2,83.5c-0.1,0.1-0.3,0.3-0.4,0.4C91.9,83.7,92,83.6,92.2,83.5z"/>
	<path class="st4" d="M93.6,82c-0.1,0.1-0.2,0.2-0.3,0.3C93.4,82.2,93.5,82.1,93.6,82z"/>
	<path class="st5" d="M82.1,28.6"/>
	<linearGradient id="SVGID_4_" gradientUnits="userSpaceOnUse" x1="45.8214" y1="65.0647" x2="99.9454" y2="65.0647">
		<stop  offset="0" style="stop-color:#E31C2D"/>
		<stop  offset="1" style="stop-color:#F15453"/>
	</linearGradient>
	<path class="st6" d="M99.7,62.1c-4.5-17.2-20.6-21.2-25.2-22c-3.3-0.5-6.5-0.7-9.7-0.7c-4.4,7.2-9.5,17.9-14,33.2
		c-0.1,0.2-0.1,0.5-0.2,0.7c0,0-0.6,3.4-2.4,7.3h0L45.8,85c0,0,32.2,14.4,47.4-2.6c0,0,0.1-0.1,0.1-0.1c0.1-0.1,0.2-0.2,0.3-0.3
		c0.3-0.4,0.6-0.7,0.9-1.1c0.5-0.7,1.1-1.5,1.6-2.2c0.2-0.4,0.4-0.7,0.6-1.1c0.4-0.9,1.3-2.8,2.3-5.5c0-0.2,0.1-0.3,0.1-0.5
		c0.1-0.3,0.1-0.5,0.2-0.8c0-0.2,0.1-0.4,0.1-0.6c0.3-1.5,0.5-3.1,0.5-4.8C99.9,64.4,99.9,63.2,99.7,62.1L99.7,62.1z"/>
	<path class="st7" d="M45.8,41c0.4,0,0.8-0.1,1.2-0.1C46.6,40.9,46.2,40.9,45.8,41L45.8,41z"/>
	<polygon class="st7" points="42.4,41.2 42.4,41.3 43,41.2 43,41.2 	"/>
	<path class="st7" d="M44.2,41.1L44.2,41.1c0.3,0,0.7-0.1,1-0.1c-0.2,0-0.4,0-0.6,0.1C44.5,41.1,44.4,41.1,44.2,41.1z"/>
	<path class="st7" d="M45.8,41L45.8,41c-0.2,0-0.4,0-0.5,0.1C45.5,41,45.7,41,45.8,41z"/>
	<path class="st7" d="M44.2,41.1L44.2,41.1L44.2,41.1c-0.3,0-0.8,0.1-1.2,0.1C43.3,41.2,43.8,41.2,44.2,41.1z"/>
	<path class="st7" d="M40.3,41.4C40.3,41.4,40.3,41.4,40.3,41.4c0,0,0.3,0,0.6,0c0,0,0,0,0,0l1.5-0.1l0,0L40.3,41.4z"/>
	<linearGradient id="SVGID_5_" gradientUnits="userSpaceOnUse" x1="76.571" y1="68.9002" x2="40.4093" y2="44.7923">
		<stop  offset="5.376050e-03" style="stop-color:#0661FF"/>
		<stop  offset="0.9892" style="stop-color:#06A5FF"/>
	</linearGradient>
	<path class="st8" d="M50.7,40.3c-2.3,0.3-3.6,0.6-3.6,0.6c-0.4,0.1-0.8,0.1-1.2,0.1l0,0c-0.1,0-0.3,0-0.5,0.1c-0.4,0-0.7,0.1-1,0.1
		v0l-0.1,0c-0.4,0-0.8,0.1-1.2,0.1l-0.5,0l0,0l-1.5,0.1c0,0,0,0,0,0c-0.4,0-0.6,0-0.6,0l0,0c0,0,0,0,0,0l-1,0
		c0.9,10.2,4,21.5,11.4,31.9l0-1.1c0.1,0.1,0.1,0.2,0.2,0.4c4.5-15.3,9.6-25.9,14-33.2C59.1,39.3,54,39.8,50.7,40.3z"/>
	<linearGradient id="SVGID_6_" gradientUnits="userSpaceOnUse" x1="82.8007" y1="54.2133" x2="109.3579" y2="17.2217">
		<stop  offset="2.162320e-03" style="stop-color:#FBA911"/>
		<stop  offset="1" style="stop-color:#FDBB03"/>
	</linearGradient>
	<path class="st9" d="M113.9,22.2c-0.1,0-0.1-0.1-0.2-0.1l0,0c-27.4-15.7-43.2,9.4-43.3,9.4c-1.7,2-3.5,4.6-5.6,7.9
		c2.4,0,5,0.2,7.5,0.5h0c0,0,26.6,3.3,27.6,26.3c0,1.4-0.2,2.8-0.4,4.2c0,0.2-0.1,0.4-0.1,0.6c-0.1,0.3-0.1,0.5-0.2,0.7
		c0.9-2.6,1.8-6.1,2.5-10l0,0l0.8-3.6c0,0,0,0,0,0l1-4.7c0.9-3.5,2.6-8.3,5.4-12.1c0.9-1.2,2-2.3,3.2-3.3c0.1,0,0.1-0.1,0.2-0.1
		c1.3-1.1,2.8-2.1,4.5-2.9c0.3-0.1,0.6-0.3,1-0.4l0,0c9.1-3,11.2-6.4,11.2-6.4c-0.1,0.1-0.3,0.2-0.7,0.3c0.3-0.2,0.6-0.3,0.7-0.3
		l0.1,0C123,28,115.1,23,113.9,22.2z M99.9,65.8v-0.8c0,0.1,0,0.3,0,0.4C99.9,65.6,99.9,65.7,99.9,65.8z"/>
</g>
</svg>
